<svg width="0" height="0" class="hidden">
    <symbol xmlns="http://www.w3.org/2000/svg" viewBox="0 0 20 21" id="pin-alt">
        <path d="M16.6663 8.33342C16.6663 12.0153 9.99967 18.3334 9.99967 18.3334C9.99967 18.3334 3.33301 12.0153 3.33301 8.33342C3.33301 4.65152 6.31778 1.66675 9.99967 1.66675C13.6816 1.66675 16.6663 4.65152 16.6663 8.33342Z" stroke="#E1D4C9" stroke-width="1.5"/>
        <path d="M10.0003 9.16667C10.4606 9.16667 10.8337 8.79357 10.8337 8.33333C10.8337 7.8731 10.4606 7.5 10.0003 7.5C9.54009 7.5 9.16699 7.8731 9.16699 8.33333C9.16699 8.79357 9.54009 9.16667 10.0003 9.16667Z" stroke="#E1D4C9" stroke-width="1.5" stroke-linecap="round" stroke-linejoin="round"/>
    </symbol>
    <symbol xmlns="http://www.w3.org/2000/svg" viewBox="0 0 20 21" id="phone">
		<path d="M15.0984 12.7516L11.6665 13.4166C9.34845 12.2531 7.91654 10.9166 7.08321 8.83329L7.72483 5.39154L6.51197 2.16663L3.72946 2.16663C2.60191 2.16663 1.71466 3.09958 1.90108 4.21161C2.29888 6.58454 3.37231 10.5391 6.24987 13.4166C9.27338 16.4401 13.5661 17.8318 16.1378 18.4288C17.299 18.6983 18.3332 17.7908 18.3332 16.5988L18.3332 13.9843L15.0984 12.7516Z" stroke="#E1D4C9" stroke-width="1.5" stroke-linecap="round" stroke-linejoin="round"/>
    </symbol>
    <symbol xmlns="http://www.w3.org/2000/svg" viewBox="0 0 20 21" id="clock">
        <path d="M10 5.5L10 10.5L15 10.5" stroke="#E1D4C9" stroke-width="1.5" stroke-linecap="round" stroke-linejoin="round"/>
        <path d="M10.0003 18.8333C14.6027 18.8333 18.3337 15.1023 18.3337 10.5C18.3337 5.89759 14.6027 2.16663 10.0003 2.16663C5.39795 2.16663 1.66699 5.89759 1.66699 10.5C1.66699 15.1023 5.39795 18.8333 10.0003 18.8333Z" stroke="#E1D4C9" stroke-width="1.5" stroke-linecap="round" stroke-linejoin="round"/>
    </symbol>
</svg>
